<?xml version="1.0" encoding="UTF-8" standalone="no"?>
<!DOCTYPE svg PUBLIC "-//W3C//DTD SVG 1.1//EN"
 "http://www.w3.org/Graphics/SVG/1.1/DTD/svg11.dtd">
<!-- Generated by graphviz version 5.0.0 (20220707.1540)
 -->
<!-- Title: dependencies Pages: 1 -->
<svg width="602pt" height="247pt"
 viewBox="0.00 0.00 602.00 246.80" xmlns="http://www.w3.org/2000/svg" xmlns:xlink="http://www.w3.org/1999/xlink">
<g id="graph0" class="graph" transform="scale(1 1) rotate(0) translate(4 242.8)">
<title>dependencies</title>
<polygon fill="white" stroke="transparent" points="-4,4 -4,-242.8 598,-242.8 598,4 -4,4"/>
<text text-anchor="middle" x="297" y="-8.2" font-family="sans-serif" font-size="14.00">dependencies</text>
<g id="clust1" class="cluster">
<title>cluster_AppModule</title>
<polygon fill="none" stroke="black" stroke-dasharray="1,5" points="8,-32.8 8,-230.8 586,-230.8 586,-32.8 8,-32.8"/>
</g>
<g id="clust2" class="cluster">
<title>cluster_AppModule_declarations</title>
<polygon fill="none" stroke="black" points="168,-40.8 168,-92.8 578,-92.8 578,-40.8 168,-40.8"/>
</g>
<g id="clust6" class="cluster">
<title>cluster_AppModule_imports</title>
<polygon fill="none" stroke="black" points="16,-40.8 16,-92.8 160,-92.8 160,-40.8 16,-40.8"/>
</g>
<g id="clust8" class="cluster">
<title>cluster_AppModule_bootstrap</title>
<polygon fill="none" stroke="black" points="241,-170.8 241,-222.8 365,-222.8 365,-170.8 241,-170.8"/>
</g>
<!-- AppComponent -->
<g id="node1" class="node">
<title>AppComponent</title>
<polygon fill="#ffffb3" stroke="black" points="569.94,-84.8 464.06,-84.8 464.06,-48.8 569.94,-48.8 569.94,-84.8"/>
<text text-anchor="middle" x="517" y="-62.6" font-family="Times,serif" font-size="14.00">AppComponent</text>
</g>
<!-- AppModule -->
<g id="node4" class="node">
<title>AppModule</title>
<polygon fill="#8dd3c7" stroke="black" points="344.66,-149.8 341.66,-153.8 320.66,-153.8 317.66,-149.8 261.34,-149.8 261.34,-113.8 344.66,-113.8 344.66,-149.8"/>
<text text-anchor="middle" x="303" y="-127.6" font-family="Times,serif" font-size="14.00">AppModule</text>
</g>
<!-- AppComponent&#45;&gt;AppModule -->
<g id="edge1" class="edge">
<title>AppComponent&#45;&gt;AppModule</title>
<path fill="none" stroke="black" d="M517,-84.91C517,-104.14 517,-131.8 517,-131.8 517,-131.8 354.77,-131.8 354.77,-131.8"/>
<polygon fill="black" stroke="black" points="354.77,-128.3 344.77,-131.8 354.77,-135.3 354.77,-128.3"/>
</g>
<!-- DashboardComponent -->
<g id="node2" class="node">
<title>DashboardComponent</title>
<polygon fill="#ffffb3" stroke="black" points="445.98,-84.8 304.02,-84.8 304.02,-48.8 445.98,-48.8 445.98,-84.8"/>
<text text-anchor="middle" x="375" y="-62.6" font-family="Times,serif" font-size="14.00">DashboardComponent</text>
</g>
<!-- DashboardComponent&#45;&gt;AppModule -->
<g id="edge2" class="edge">
<title>DashboardComponent&#45;&gt;AppModule</title>
<path fill="none" stroke="black" d="M324.42,-84.91C324.42,-84.91 324.42,-103.79 324.42,-103.79"/>
<polygon fill="black" stroke="black" points="320.92,-103.79 324.42,-113.79 327.92,-103.79 320.92,-103.79"/>
</g>
<!-- MainComponent -->
<g id="node3" class="node">
<title>MainComponent</title>
<polygon fill="#ffffb3" stroke="black" points="286.38,-84.8 175.62,-84.8 175.62,-48.8 286.38,-48.8 286.38,-84.8"/>
<text text-anchor="middle" x="231" y="-62.6" font-family="Times,serif" font-size="14.00">MainComponent</text>
</g>
<!-- MainComponent&#45;&gt;AppModule -->
<g id="edge3" class="edge">
<title>MainComponent&#45;&gt;AppModule</title>
<path fill="none" stroke="black" d="M273.81,-84.91C273.81,-84.91 273.81,-103.79 273.81,-103.79"/>
<polygon fill="black" stroke="black" points="270.31,-103.79 273.81,-113.79 277.31,-103.79 270.31,-103.79"/>
</g>
<!-- AppComponent  -->
<g id="node6" class="node">
<title>AppComponent </title>
<polygon fill="#80b1d3" stroke="black" points="357.44,-214.8 248.56,-214.8 248.56,-178.8 357.44,-178.8 357.44,-214.8"/>
<text text-anchor="middle" x="303" y="-192.6" font-family="Times,serif" font-size="14.00">AppComponent </text>
</g>
<!-- AppModule&#45;&gt;AppComponent  -->
<g id="edge5" class="edge">
<title>AppModule&#45;&gt;AppComponent </title>
<path fill="none" stroke="black" stroke-dasharray="1,5" d="M303,-149.91C303,-149.91 303,-168.79 303,-168.79"/>
<polygon fill="black" stroke="black" points="299.5,-168.79 303,-178.79 306.5,-168.79 299.5,-168.79"/>
</g>
<!-- AppRoutingModule -->
<g id="node5" class="node">
<title>AppRoutingModule</title>
<polygon fill="#8dd3c7" stroke="black" points="152.28,-84.8 149.28,-88.8 128.28,-88.8 125.28,-84.8 23.72,-84.8 23.72,-48.8 152.28,-48.8 152.28,-84.8"/>
<text text-anchor="middle" x="88" y="-62.6" font-family="Times,serif" font-size="14.00">AppRoutingModule</text>
</g>
<!-- AppRoutingModule&#45;&gt;AppModule -->
<g id="edge4" class="edge">
<title>AppRoutingModule&#45;&gt;AppModule</title>
<path fill="none" stroke="black" d="M88,-84.91C88,-104.14 88,-131.8 88,-131.8 88,-131.8 251.29,-131.8 251.29,-131.8"/>
<polygon fill="black" stroke="black" points="251.29,-135.3 261.29,-131.8 251.29,-128.3 251.29,-135.3"/>
</g>
</g>
</svg>
